<?xml version="1.0" encoding="utf-8"?>
<!-- Svg Vector Icons : http://www.onlinewebfonts.com/icon -->
<!DOCTYPE svg PUBLIC "-//W3C//DTD SVG 1.1//EN" "http://www.w3.org/Graphics/SVG/1.1/DTD/svg11.dtd">
<svg version="1.1" xmlns="http://www.w3.org/2000/svg" xmlns:xlink="http://www.w3.org/1999/xlink" x="0px" y="0px" viewBox="0 0 256 256" enable-background="new 0 0 256 256" xml:space="preserve">
<metadata> Svg Vector Icons : http://www.onlinewebfonts.com/icon </metadata>
<g><g><g><path stroke-width="3" fill-opacity="0" stroke="#fff"  d="M70.4,11.2c-3.8,1.7-7.7,6.4-8.4,10.2c-1.5,8.3-3.2,6.3,48.8,58.3l48.1,48.2L110.8,176c-52.1,52.3-50.3,50.1-48.7,58.5c0.8,4.5,6.4,10,10.9,10.9c8.6,1.7,5.6,4.1,65.4-55.6c48.6-48.7,55.1-55.4,55.6-58.5c1.6-8.6,4-5.7-54.7-64.6c-31.1-31.2-55.4-54.8-57.1-55.5C78.5,9.6,74,9.6,70.4,11.2z"/></g></g></g>
</svg>