<svg xmlns="http://www.w3.org/2000/svg" xmlns:xlink="http://www.w3.org/1999/xlink" version="1.1" x="0px" y="0px" viewBox="0 0 512 640" style="enable-background:new 0 0 512 512;" xml:space="preserve"><g><path d="M238.188,127.343L30.39,247.186c-3.149,1.818-5.086,5.176-5.086,8.811s1.937,6.994,5.086,8.811l207.798,119.843   c1.579,0.904,3.328,1.361,5.086,1.361c1.758,0,3.517-0.457,5.086-1.361c3.149-1.818,5.086-5.176,5.086-8.811V136.154   c0-3.636-1.937-6.993-5.086-8.811C245.222,125.535,241.347,125.535,238.188,127.343z M233.102,358.228L55.841,255.998   l177.261-102.23V358.228z"/><path d="M481.61,127.224c-3.139-1.808-7.033-1.808-10.172,0L263.659,247.186c-3.149,1.818-5.086,5.176-5.086,8.811   s1.937,6.994,5.086,8.811l207.778,119.962c1.57,0.904,3.328,1.361,5.086,1.361s3.517-0.457,5.086-1.361   c3.149-1.818,5.086-5.176,5.086-8.811V136.035C486.696,132.399,484.759,129.042,481.61,127.224z M466.351,358.337L289.09,255.998   l177.261-102.34V358.337z"/></g><text x="0" y="527" fill="#000000" font-size="5px" font-weight="bold" font-family="'Helvetica Neue', Helvetica, Arial-Unicode, Arial, Sans-serif">Created by Creative Studio</text><text x="0" y="532" fill="#000000" font-size="5px" font-weight="bold" font-family="'Helvetica Neue', Helvetica, Arial-Unicode, Arial, Sans-serif">from the Noun Project</text></svg>