<svg version="1.1" id="Layer_1" xmlns="http://www.w3.org/2000/svg" xmlns:xlink="http://www.w3.org/1999/xlink" x="0px" y="0px"
	 width="100%" viewBox="0 0 899 1280" enable-background="new 0 0 899 1280" xml:space="preserve">
<path fill="#FAFAFA" opacity="1.000000" stroke="none" 
	d="
M900.000000,1106.000000 
	C900.000000,1164.326416 900.000000,1222.652954 900.000000,1280.984619 
	C600.375610,1280.989746 300.751160,1280.989746 1.063375,1280.989746 
	C1.063375,854.425964 1.063375,427.851868 1.063375,1.138906 
	C300.666626,1.138906 600.333313,1.138906 900.000000,1.138906 
	C900.000000,91.772057 900.000000,182.428085 899.754272,273.535095 
	C899.183105,273.918549 898.856567,273.912933 898.410522,273.529541 
	C897.230835,250.662781 890.327393,230.317642 876.028442,212.863327 
	C855.476685,187.776520 828.296265,176.236603 796.368347,175.988266 
	C742.711670,175.570938 689.050537,175.683517 635.391235,175.666275 
	C579.064636,175.648178 522.738037,175.748688 466.411438,175.780746 
	C397.920135,175.819748 329.427765,175.665497 260.938721,176.073792 
	C251.447159,176.130371 241.722672,178.050369 232.545197,180.655075 
	C217.183563,185.014999 205.641388,195.755585 194.686432,206.745728 
	C172.467361,229.036194 150.682495,251.758667 128.563751,274.150085 
	C96.278580,306.833252 63.663525,339.192841 31.576010,372.067993 
	C15.762984,388.269196 5.856164,407.407318 5.817925,430.856018 
	C5.470600,643.842529 4.976331,856.828857 4.765959,1069.815430 
	C4.753710,1082.216064 5.976254,1094.766968 8.106809,1106.989502 
	C12.546876,1132.461182 25.441086,1153.225586 46.143818,1168.821045 
	C66.377899,1184.063599 89.891434,1189.665039 114.635063,1189.767700 
	C204.127838,1190.138916 293.622437,1190.140015 383.116333,1190.154175 
	C498.442596,1190.172241 613.769348,1190.238403 729.094727,1189.890381 
	C755.869019,1189.809570 782.727783,1191.853149 809.431213,1187.682617 
	C831.349609,1184.259644 850.171021,1174.779419 866.355347,1159.820435 
	C882.265442,1145.114990 891.460327,1126.505493 897.712280,1106.025635 
	C898.692200,1106.017334 899.346130,1106.008667 900.000000,1106.000000 
z"/>
<path fill="#E4E4E4" opacity="1.000000" stroke="none" 
	d="
M898.528992,273.969238 
	C898.856567,273.912933 899.183105,273.918549 899.754272,273.993042 
	C900.000000,547.029358 900.000000,820.058777 899.753967,1093.561279 
	C899.181091,1094.123047 898.855347,1094.119141 898.463135,1093.614258 
	C898.525024,1090.544434 898.767029,1087.882568 898.767517,1085.220825 
	C898.786194,982.583374 898.790955,879.945984 898.780334,777.308533 
	C898.767639,655.010010 898.753784,532.711487 898.710083,410.412933 
	C898.693848,364.931702 898.591858,319.450470 898.528992,273.969238 
z"/>
<path fill="#E4E4E4" opacity="1.000000" stroke="none" 
	d="
M900.000000,1105.583374 
	C899.346130,1106.008667 898.692200,1106.017334 897.600098,1105.637939 
	C897.479065,1103.162598 897.796204,1101.075317 898.351685,1099.141724 
	C899.059998,1099.863525 899.530029,1100.431763 900.000000,1101.000000 
	C900.000000,1102.388916 900.000000,1103.777832 900.000000,1105.583374 
z"/>
<path fill="#FAFAFA" opacity="1.000000" stroke="none" 
	d="
M900.000000,1100.562500 
	C899.530029,1100.431763 899.059998,1099.863525 898.269226,1098.729614 
	C898.142517,1096.783447 898.336670,1095.402954 898.530762,1094.022461 
	C898.855347,1094.119141 899.181091,1094.123047 899.753967,1094.017090 
	C900.000000,1096.041626 900.000000,1098.083374 900.000000,1100.562500 
z"/>
<path fill="#010101" opacity="1.000000" stroke="none" 
	d="
M898.463135,1093.614258 
	C898.336670,1095.402954 898.142517,1096.783447 898.030884,1098.576050 
	C897.796204,1101.075317 897.479065,1103.162598 897.274048,1105.637451 
	C891.460327,1126.505493 882.265442,1145.114990 866.355347,1159.820435 
	C850.171021,1174.779419 831.349609,1184.259644 809.431213,1187.682617 
	C782.727783,1191.853149 755.869019,1189.809570 729.094727,1189.890381 
	C613.769348,1190.238403 498.442596,1190.172241 383.116333,1190.154175 
	C293.622437,1190.140015 204.127838,1190.138916 114.635063,1189.767700 
	C89.891434,1189.665039 66.377899,1184.063599 46.143818,1168.821045 
	C25.441086,1153.225586 12.546876,1132.461182 8.106809,1106.989502 
	C5.976254,1094.766968 4.753710,1082.216064 4.765959,1069.815430 
	C4.976331,856.828857 5.470600,643.842529 5.817925,430.856018 
	C5.856164,407.407318 15.762984,388.269196 31.576010,372.067993 
	C63.663525,339.192841 96.278580,306.833252 128.563751,274.150085 
	C150.682495,251.758667 172.467361,229.036194 194.686432,206.745728 
	C205.641388,195.755585 217.183563,185.014999 232.545197,180.655075 
	C241.722672,178.050369 251.447159,176.130371 260.938721,176.073792 
	C329.427765,175.665497 397.920135,175.819748 466.411438,175.780746 
	C522.738037,175.748688 579.064636,175.648178 635.391235,175.666275 
	C689.050537,175.683517 742.711670,175.570938 796.368347,175.988266 
	C828.296265,176.236603 855.476685,187.776520 876.028442,212.863327 
	C890.327393,230.317642 897.230835,250.662781 898.410522,273.529541 
	C898.591858,319.450470 898.693848,364.931702 898.710083,410.412933 
	C898.753784,532.711487 898.767639,655.010010 898.780334,777.308533 
	C898.790955,879.945984 898.786194,982.583374 898.767517,1085.220825 
	C898.767029,1087.882568 898.525024,1090.544434 898.463135,1093.614258 
M596.159729,833.072021 
	C595.426819,832.407898 594.693848,831.743774 593.989563,831.010376 
	C593.989563,831.010376 593.920288,831.039001 593.659912,830.425171 
	C591.437927,828.960632 589.215942,827.496094 586.386353,825.607483 
	C578.006653,821.925964 569.556946,821.448547 560.331238,825.147217 
	C553.050903,829.008179 546.307007,833.406555 543.181641,842.361084 
	C543.083130,843.227173 542.984619,844.093201 542.214355,845.203491 
	C541.796753,846.797791 541.379150,848.392029 540.541931,850.698242 
	C540.326965,866.325623 540.019409,881.952759 539.981567,897.580566 
	C539.974670,900.428833 541.068909,903.279785 541.809387,906.860107 
	C543.797424,910.440613 545.400574,914.312012 547.845459,917.547302 
	C555.282715,927.389465 565.838013,928.114197 577.278870,928.379272 
	C589.579041,928.664185 603.077759,914.306763 603.593079,905.648254 
	C604.596252,888.793579 604.057312,871.847046 604.372131,854.214539 
	C604.260803,853.475830 604.149414,852.737183 604.239807,851.197266 
	C603.822632,849.132935 603.405457,847.068665 603.029419,844.304199 
	C602.070679,842.516296 601.111938,840.728455 600.058777,838.293274 
	C599.416077,837.471375 598.773376,836.649475 598.071350,835.942932 
	C598.071350,835.942932 598.180420,835.872620 598.067078,835.290283 
	C597.518921,834.754028 596.970825,834.217712 596.252625,833.818481 
	C596.252625,833.818481 596.373901,833.636841 596.159729,833.072021 
M464.237793,995.299377 
	C463.483337,995.428528 462.728912,995.557739 461.101318,995.416748 
	C454.067566,995.284363 447.033783,995.151917 439.378693,994.595032 
	C436.918457,994.097717 434.458221,993.600403 431.382599,992.723694 
	C424.305420,988.473877 417.254181,984.179932 410.139069,979.994568 
	C407.044739,978.174561 403.992462,975.717468 400.621246,975.038452 
	C389.901306,972.879272 376.281158,983.867126 380.727722,999.806763 
	C382.101868,1001.553772 383.476044,1003.300781 384.947906,1005.536194 
	C385.098938,1005.869202 385.355621,1006.060425 385.902252,1006.768982 
	C387.928650,1008.612732 389.955017,1010.456482 392.234985,1012.890747 
	C394.485321,1014.609802 396.735657,1016.328796 399.286407,1018.643066 
	C401.175232,1019.804504 403.064026,1020.966003 405.307739,1022.646240 
	C406.457855,1023.128601 407.607941,1023.610901 409.079590,1024.705444 
	C410.357605,1025.212280 411.635620,1025.719238 413.094849,1026.682983 
	C413.094849,1026.682983 413.526520,1026.917725 413.526520,1026.917725 
	C413.526520,1026.917725 414.012329,1026.843994 414.548187,1027.239746 
	C414.974487,1027.334106 415.400757,1027.428467 416.367584,1027.888794 
	C417.190186,1028.127808 418.012787,1028.366699 419.438812,1028.948853 
	C421.266296,1029.368652 423.093750,1029.788330 425.547028,1030.652832 
	C429.698059,1031.103271 433.849060,1031.553589 438.731354,1032.244019 
	C439.487549,1032.164062 440.243744,1032.084106 441.904938,1032.268311 
	C448.936340,1032.158081 455.967773,1032.047729 463.776733,1032.185059 
	C464.851807,1032.087158 465.926910,1031.989258 467.854858,1032.079346 
	C477.274414,1029.477051 486.693970,1026.874878 496.747894,1024.231323 
	C497.650024,1023.799194 498.552124,1023.367188 499.748688,1022.799133 
	C499.888855,1022.669006 500.039062,1022.551758 500.240173,1022.505798 
	C500.240173,1022.505798 500.293060,1022.553772 501.153839,1022.662842 
	C502.098267,1022.066650 503.042694,1021.470520 504.661346,1020.997314 
	C505.607056,1020.418030 506.552765,1019.838806 508.125244,1019.160278 
	C509.598694,1018.371460 511.072174,1017.582642 513.113708,1016.500122 
	C514.107483,1015.750732 515.101257,1015.001404 516.788330,1014.111328 
	C520.700256,1010.246033 524.950867,1006.661560 528.444153,1002.449097 
	C533.582458,996.252563 534.310852,985.733459 526.326172,978.137756 
	C520.402832,972.502930 509.656525,972.201599 503.210052,977.222473 
	C495.668732,983.096313 487.754761,988.491699 479.176392,994.022522 
	C476.229431,994.431152 473.282440,994.839783 469.883575,995.291931 
	C469.453461,995.283386 469.023346,995.274902 468.088226,995.070618 
	C467.058960,995.203796 466.029724,995.336975 464.237793,995.299377 
M370.379303,897.686890 
	C370.380768,897.195557 370.382233,896.704163 371.151337,895.717712 
	C370.889191,880.497803 370.627075,865.277893 370.624146,849.548950 
	C370.399353,849.037903 370.174561,848.526855 370.012787,847.358459 
	C369.692505,846.565186 369.372253,845.771851 369.113525,844.235291 
	C367.384766,841.223755 365.655975,838.212158 363.702484,834.554626 
	C362.539490,833.368713 361.415619,832.141235 360.207336,831.003418 
	C349.727295,821.134766 333.062408,819.730591 321.724701,827.852478 
	C313.542999,833.516174 307.693695,840.789856 307.524261,851.141113 
	C307.257538,867.431030 307.369629,883.729065 307.510681,900.022034 
	C307.536133,902.962585 308.020050,906.066345 309.057922,908.804626 
	C318.205597,932.939514 350.445160,934.332153 363.978516,917.335327 
	C366.003967,910.920654 368.029449,904.505981 370.379303,897.686890 
M746.500122,255.320984 
	C701.165771,255.324341 655.831421,255.335861 610.497070,255.329391 
	C499.341125,255.313538 388.185211,255.288040 277.029266,255.271667 
	C269.728455,255.270599 269.603882,255.441010 270.517151,262.490906 
	C270.688049,263.810455 270.802277,265.147064 270.809998,266.476562 
	C271.008057,300.636505 271.900452,334.812592 271.133057,368.951263 
	C270.579712,393.568115 260.104614,414.255096 240.530731,429.795868 
	C222.912674,443.783752 201.960693,448.615814 180.308640,449.372803 
	C151.845078,450.367828 123.323669,449.708496 94.827141,449.760010 
	C81.789307,449.783600 81.848015,449.782898 81.858315,462.852142 
	C81.947220,575.671875 82.062508,688.491638 82.070404,801.311340 
	C82.076538,888.801331 81.889328,976.291321 81.949280,1063.781250 
	C81.954964,1072.068481 82.851639,1080.385254 83.806793,1088.633667 
	C84.856689,1097.700195 94.493622,1107.800781 102.799385,1107.893921 
	C128.734253,1108.185425 154.674484,1108.000977 181.044693,1108.000977 
	C181.044693,1105.973999 181.044189,1103.839722 181.044769,1101.705566 
	C181.072235,1001.881104 181.029587,902.056458 181.256836,802.232483 
	C181.275604,793.991760 182.504135,785.621460 184.246613,777.543396 
	C188.485687,757.891235 198.540894,741.229431 211.823380,726.295410 
	C237.435028,697.499390 269.024536,680.545715 307.857422,680.254822 
	C384.346344,679.681763 460.843048,679.894836 537.335327,680.151062 
	C565.077209,680.244019 592.845337,678.565063 620.500671,683.875977 
	C643.094177,688.214661 663.740601,696.235840 681.072876,711.181824 
	C708.674683,734.983398 722.620361,765.587524 722.675049,802.091980 
	C722.825317,902.416077 722.745239,1002.740417 722.777893,1103.064697 
	C722.778442,1104.796265 723.050171,1106.527832 723.172119,1107.982422 
	C749.462891,1107.982422 775.118774,1108.158691 800.767151,1107.799194 
	C804.782959,1107.742920 809.096436,1105.830200 812.691345,1103.764771 
	C819.615540,1099.786377 822.558899,1092.856201 822.848877,1085.281860 
	C823.460510,1069.309814 823.660583,1053.313965 823.664368,1037.327881 
	C823.716370,817.514465 823.706604,597.700989 823.710571,377.887543 
	C823.711060,350.056610 823.825195,322.224701 823.604797,294.395508 
	C823.556396,288.282776 822.958923,282.015594 821.476501,276.104950 
	C818.019592,262.321625 807.723816,256.573944 794.478333,256.010376 
	C778.837463,255.344940 763.161133,255.514969 746.500122,255.320984 
z"/>
<path fill="#FAFAFA" opacity="1.000000" stroke="none" 
	d="
M747.000122,255.321899 
	C763.161133,255.514969 778.837463,255.344940 794.478333,256.010376 
	C807.723816,256.573944 818.019592,262.321625 821.476501,276.104950 
	C822.958923,282.015594 823.556396,288.282776 823.604797,294.395508 
	C823.825195,322.224701 823.711060,350.056610 823.710571,377.887543 
	C823.706604,597.700989 823.716370,817.514465 823.664368,1037.327881 
	C823.660583,1053.313965 823.460510,1069.309814 822.848877,1085.281860 
	C822.558899,1092.856201 819.615540,1099.786377 812.691345,1103.764771 
	C809.096436,1105.830200 804.782959,1107.742920 800.767151,1107.799194 
	C775.118774,1108.158691 749.462891,1107.982422 723.172119,1107.982422 
	C723.050171,1106.527832 722.778442,1104.796265 722.777893,1103.064697 
	C722.745239,1002.740417 722.825317,902.416077 722.675049,802.091980 
	C722.620361,765.587524 708.674683,734.983398 681.072876,711.181824 
	C663.740601,696.235840 643.094177,688.214661 620.500671,683.875977 
	C592.845337,678.565063 565.077209,680.244019 537.335327,680.151062 
	C460.843048,679.894836 384.346344,679.681763 307.857422,680.254822 
	C269.024536,680.545715 237.435028,697.499390 211.823380,726.295410 
	C198.540894,741.229431 188.485687,757.891235 184.246613,777.543396 
	C182.504135,785.621460 181.275604,793.991760 181.256836,802.232483 
	C181.029587,902.056458 181.072235,1001.881104 181.044769,1101.705566 
	C181.044189,1103.839722 181.044693,1105.973999 181.044693,1108.000977 
	C154.674484,1108.000977 128.734253,1108.185425 102.799385,1107.893921 
	C94.493622,1107.800781 84.856689,1097.700195 83.806793,1088.633667 
	C82.851639,1080.385254 81.954964,1072.068481 81.949280,1063.781250 
	C81.889328,976.291321 82.076538,888.801331 82.070404,801.311340 
	C82.062508,688.491638 81.947220,575.671875 81.858315,462.852142 
	C81.848015,449.782898 81.789307,449.783600 94.827141,449.760010 
	C123.323669,449.708496 151.845078,450.367828 180.308640,449.372803 
	C201.960693,448.615814 222.912674,443.783752 240.530731,429.795868 
	C260.104614,414.255096 270.579712,393.568115 271.133057,368.951263 
	C271.900452,334.812592 271.008057,300.636505 270.809998,266.476562 
	C270.802277,265.147064 270.688049,263.810455 270.517151,262.490906 
	C269.603882,255.441010 269.728455,255.270599 277.029266,255.271667 
	C388.185211,255.288040 499.341125,255.313538 610.497070,255.329391 
	C655.831421,255.335861 701.165771,255.324341 747.000122,255.321899 
M615.500061,520.233948 
	C551.349976,520.213562 487.199829,520.168762 423.049713,520.179321 
	C353.567963,520.190796 284.085907,520.148010 214.604706,520.361511 
	C194.881439,520.422058 180.726425,539.910950 185.994919,558.928406 
	C189.949539,573.203186 202.599899,582.688477 218.445190,582.732849 
	C270.097595,582.877319 321.750366,582.922485 373.403015,582.908813 
	C477.041504,582.881348 580.679993,582.769165 684.318481,582.761963 
	C693.053467,582.761353 701.070435,580.101379 707.290405,574.529053 
	C711.895386,570.403625 716.380432,564.663330 717.913086,558.849915 
	C723.988892,535.804749 704.906494,520.351746 687.481323,520.290283 
	C663.821167,520.206787 640.160522,520.246948 615.500061,520.233948 
M426.500214,376.393158 
	C410.507812,376.427277 394.515320,376.440247 378.523041,376.503204 
	C368.428467,376.542938 358.689545,377.973969 349.663574,383.035828 
	C336.272552,390.545593 331.313995,412.025665 340.471863,424.470123 
	C347.949951,434.631958 358.456970,438.837830 370.788971,438.875549 
	C392.945190,438.943268 415.101685,438.914673 437.258087,438.918823 
	C518.054749,438.933929 598.851562,439.009216 679.647888,438.840485 
	C686.189331,438.826813 693.052612,438.092804 699.196228,436.010956 
	C710.518372,432.174286 717.961304,424.309174 719.138916,411.698700 
	C720.334900,398.890869 715.134888,389.614410 704.141418,383.074005 
	C694.558105,377.372620 684.171936,376.372040 673.389343,376.378998 
	C591.426331,376.432068 509.463287,376.399261 426.500214,376.393158 
z"/>
<path fill="#EBEBEB" opacity="1.000000" stroke="none" 
	d="
M363.391754,917.801697 
	C350.445160,934.332153 318.205597,932.939514 309.057922,908.804626 
	C308.020050,906.066345 307.536133,902.962585 307.510681,900.022034 
	C307.369629,883.729065 307.257538,867.431030 307.524261,851.141113 
	C307.693695,840.789856 313.542999,833.516174 322.374939,827.948730 
	C322.962769,829.481079 323.439423,831.778381 322.748657,832.210815 
	C318.837128,834.659241 318.711487,834.626526 321.457092,838.980835 
	C325.673706,834.236084 330.773590,832.241577 337.238220,831.731934 
	C343.656586,831.225952 348.987823,831.744202 352.952820,836.976257 
	C355.022583,839.707458 356.440613,842.932556 358.153015,845.934631 
	C358.654572,845.247314 359.156128,844.560059 359.657654,843.872803 
	C359.980408,845.484253 360.277649,847.101379 360.630676,848.706177 
	C361.713593,853.628845 363.537506,858.516296 363.748077,863.473694 
	C364.077423,871.227112 362.729126,879.062134 363.192444,886.796570 
	C363.645081,894.352844 361.331482,901.048584 358.710266,907.707153 
	C356.513489,913.287720 353.449463,918.501099 346.326233,920.536804 
	C351.667938,924.081543 354.636871,921.818237 357.679382,918.912476 
	C359.176178,917.482971 360.702881,913.978149 363.391754,917.801697 
M321.515564,830.411255 
	C321.515564,830.411255 321.582825,830.523376 321.515564,830.411255 
z"/>
<path fill="#ECECEC" opacity="1.000000" stroke="none" 
	d="
M604.157104,854.938599 
	C604.057312,871.847046 604.596252,888.793579 603.593079,905.648254 
	C603.077759,914.306763 589.579041,928.664185 577.278870,928.379272 
	C565.838013,928.114197 555.282715,927.389465 547.845459,917.547302 
	C545.400574,914.312012 543.797424,910.440613 542.117554,906.467041 
	C545.195862,908.538452 547.965881,911.002930 550.735962,913.467468 
	C551.157471,911.010010 550.249084,908.988770 550.077332,906.906677 
	C548.962952,893.403503 547.819336,879.896484 547.149475,866.367737 
	C547.000916,863.368164 548.953491,860.319153 549.497009,857.215637 
	C550.057129,854.017212 549.997620,850.715515 550.352600,847.474731 
	C551.011658,841.458252 556.689331,839.365723 560.131165,835.602356 
	C562.148376,833.396667 565.516418,832.347473 568.388184,831.018677 
	C574.576355,828.155090 579.598633,831.823059 584.636841,834.419128 
	C586.963379,835.618042 589.117065,837.553955 590.747803,839.628418 
	C596.304810,846.697144 597.453979,855.209595 597.977600,863.838745 
	C598.112244,866.058105 597.997803,868.292603 597.997803,871.074097 
	C601.348328,869.669128 602.700867,868.778442 602.296143,865.355347 
	C601.899780,862.003296 603.457214,858.420227 604.157104,854.938599 
z"/>
<path fill="#F0F0F0" opacity="1.000000" stroke="none" 
	d="
M380.754120,999.102966 
	C376.281158,983.867126 389.901306,972.879272 400.621246,975.038452 
	C403.992462,975.717468 407.044739,978.174561 410.139069,979.994568 
	C417.254181,984.179932 424.305420,988.473877 431.731537,993.258667 
	C432.932953,995.133240 433.785461,996.472839 435.004883,998.389160 
	C436.843353,997.148926 438.421661,996.084167 440.000000,995.019409 
	C447.033783,995.151917 454.067566,995.284363 461.540283,995.840942 
	C461.985779,996.843445 461.992279,997.421753 461.565979,998.000366 
	C458.928467,998.000732 456.723724,998.000732 453.821167,998.000732 
	C455.163177,1000.955200 456.081604,1002.977112 456.703217,1005.292725 
	C449.694824,1005.897095 442.983215,1006.207886 435.037079,1006.575806 
	C436.819550,1008.906555 437.635132,1009.719971 438.138000,1010.694763 
	C438.765198,1011.910461 439.885406,1013.704163 439.444061,1014.448547 
	C438.737488,1015.640015 437.006897,1016.503845 435.547638,1016.880615 
	C434.389099,1017.179871 432.992523,1016.517273 431.695007,1016.326660 
	C428.621765,1015.875244 425.550049,1015.214111 422.466034,1015.142639 
	C421.381409,1015.117554 420.262726,1016.564148 419.159607,1017.338684 
	C419.975006,1018.233582 420.678223,1019.732483 421.627106,1019.908630 
	C424.324921,1020.409790 427.123474,1020.525635 429.881378,1020.515564 
	C437.471375,1020.487793 445.379639,1017.576538 452.284332,1023.401184 
	C453.121033,1024.107056 454.828461,1023.978516 456.116791,1023.915894 
	C460.900391,1023.683228 465.683105,1023.382141 470.454803,1022.973877 
	C473.059509,1022.750977 475.729919,1022.563477 478.216980,1021.835144 
	C485.518829,1019.696777 492.743744,1017.295776 499.903748,1015.245789 
	C499.537811,1016.664307 499.266876,1017.834595 498.675964,1019.003540 
	C494.296417,1019.349792 495.476959,1021.926941 496.113525,1024.272583 
	C486.693970,1026.874878 477.274414,1029.477051 467.428467,1031.638794 
	C466.835693,1030.310913 466.669312,1029.423462 466.283081,1027.363403 
	C464.785431,1029.449463 463.892303,1030.693359 462.999207,1031.937378 
	C455.967773,1032.047729 448.936340,1032.158081 441.402130,1031.802979 
	C439.932922,1031.559937 438.966492,1031.781982 438.000061,1032.003906 
	C433.849060,1031.553589 429.698059,1031.103271 425.273193,1030.095337 
	C424.555450,1028.179565 424.111542,1026.821289 423.667633,1025.463013 
	C422.056915,1026.510620 420.446167,1027.558105 418.835419,1028.605713 
	C418.012787,1028.366699 417.190186,1028.127808 416.133636,1027.418457 
	C415.739777,1026.550415 415.579865,1026.152710 415.419983,1025.754883 
	C414.950745,1026.117920 414.481537,1026.480957 414.012329,1026.843994 
	C414.012329,1026.843994 413.526520,1026.917725 413.526520,1026.917725 
	C413.526520,1026.917725 413.094849,1026.682983 412.966949,1026.066162 
	C411.478699,1024.997314 410.118378,1024.545288 408.758057,1024.093262 
	C407.607941,1023.610901 406.457855,1023.128601 405.175781,1022.072388 
	C405.407135,1020.782410 405.770416,1020.066345 406.245117,1019.130676 
	C401.476227,1019.326294 401.090607,1015.687927 400.292480,1012.480835 
	C399.473389,1009.189697 398.050018,1008.187012 395.382751,1010.756775 
	C396.631256,1013.283081 397.808624,1015.665405 398.986023,1018.047791 
	C396.735657,1016.328796 394.485321,1014.609802 392.116272,1012.180054 
	C391.997528,1010.026917 391.997528,1008.584534 391.997528,1006.897583 
	C389.759644,1006.616882 387.738800,1006.363342 385.717957,1006.109863 
	C385.355621,1006.060425 385.098938,1005.869202 385.262024,1005.281250 
	C386.717285,1004.684143 387.858459,1004.342041 389.053619,1004.135254 
	C389.190948,1004.319275 389.274292,1004.368042 389.357605,1004.416870 
	C389.238831,1004.277893 389.120026,1004.138916 388.942474,1003.656067 
	C386.691254,1001.638916 384.498779,999.965698 382.059235,998.103943 
	C382.027679,998.128113 381.390900,998.615540 380.754120,999.102966 
M418.988373,1000.241760 
	C418.561035,997.031250 416.837036,995.714111 413.475037,996.295471 
	C413.561127,1000.297058 415.772400,1001.264954 419.000244,1001.823608 
	C418.737793,1005.305847 419.695221,1006.877441 423.554474,1005.315491 
	C424.997223,1004.731628 426.889038,1005.325684 428.568390,1005.236877 
	C429.940887,1005.164307 431.301880,1004.874939 434.007050,1004.492310 
	C428.371887,1001.069885 424.162994,998.783691 418.988373,1000.241760 
M391.504272,986.996948 
	C390.677399,990.184692 388.138763,994.644104 389.370697,996.302429 
	C392.159607,1000.056641 393.510284,1005.462585 398.964691,1007.088257 
	C400.768433,1007.625793 402.218506,1009.294800 403.884674,1010.361511 
	C406.672668,1012.146484 409.371826,1014.182800 412.389954,1015.434204 
	C413.440063,1015.869568 415.324554,1014.292542 416.827972,1013.634644 
	C416.315155,1012.528687 415.759735,1010.448181 415.296143,1010.468506 
	C410.939484,1010.658875 409.163727,1008.201965 408.055206,1004.493835 
	C407.841003,1003.777344 406.226044,1003.468933 405.246307,1002.994812 
	C404.216980,1002.496704 403.174622,1002.025696 401.002228,1001.013794 
	C404.042511,999.741333 405.793335,999.008606 406.565186,998.685547 
	C407.656921,995.141296 408.522675,992.330750 409.281342,989.867798 
	C406.876404,988.245117 404.510223,986.760376 402.266174,985.109680 
	C398.376923,982.248840 395.006287,982.722656 391.504272,986.996948 
M491.019714,1022.355164 
	C490.685699,1022.897278 490.351715,1023.439392 490.017700,1023.981506 
	C490.240479,1024.097290 490.463287,1024.213135 490.686066,1024.328857 
	C490.917358,1023.779541 491.148621,1023.230164 491.019714,1022.355164 
M472.224335,1027.532715 
	C471.842194,1027.406738 471.464661,1027.260010 471.073914,1027.172119 
	C470.997009,1027.154907 470.869171,1027.364136 470.764832,1027.468872 
	C471.146912,1027.594727 471.528992,1027.720581 472.224335,1027.532715 
z"/>
<path fill="#F1F1F1" opacity="1.000000" stroke="none" 
	d="
M498.995941,1019.004883 
	C499.266876,1017.834595 499.537811,1016.664307 500.180786,1015.039429 
	C502.845276,1011.780273 504.615570,1008.095154 507.542053,1006.359802 
	C513.120300,1003.052124 518.635864,1000.033569 522.110657,994.241821 
	C524.209656,990.743164 521.213806,984.323914 517.122559,984.005066 
	C511.503021,983.567200 502.401520,989.314880 499.805084,994.698853 
	C499.351837,995.638733 498.021210,996.545959 496.963135,996.738281 
	C491.383698,997.752502 485.489441,997.695068 480.588409,1002.011230 
	C474.999298,1002.353149 469.808990,1002.543457 464.656982,1003.092834 
	C462.725525,1003.298828 460.883057,1004.339783 458.666687,1005.000000 
	C457.888885,1004.999695 457.444458,1004.999329 457.000000,1004.999023 
	C456.081604,1002.977112 455.163177,1000.955200 453.821167,998.000732 
	C456.723724,998.000732 458.928467,998.000732 461.903717,997.997986 
	C463.449463,997.663513 464.224731,997.331787 465.545044,996.979980 
	C466.924469,996.395325 467.758850,995.830872 468.593231,995.266418 
	C469.023346,995.274902 469.453461,995.283386 470.343262,995.775024 
	C474.290863,997.328857 477.642242,997.819153 480.002411,994.094666 
	C487.754761,988.491699 495.668732,983.096313 503.210052,977.222473 
	C509.656525,972.201599 520.402832,972.502930 526.326172,978.137756 
	C534.310852,985.733459 533.582458,996.252563 528.444153,1002.449097 
	C524.950867,1006.661560 520.700256,1010.246033 516.202148,1013.862183 
	C512.078369,1012.246521 511.750793,1013.978516 512.545654,1016.793884 
	C511.072174,1017.582642 509.598694,1018.371460 507.540466,1019.065918 
	C504.047546,1016.612610 504.553345,1019.579712 503.987122,1020.874390 
	C503.042694,1021.470520 502.098267,1022.066650 500.639923,1022.137085 
	C499.749329,1020.742493 499.372620,1019.873718 498.995941,1019.004883 
z"/>
<path fill="#F3F3F3" opacity="1.000000" stroke="none" 
	d="
M363.685120,917.568481 
	C360.702881,913.978149 359.176178,917.482971 357.679382,918.912476 
	C354.636871,921.818237 351.667938,924.081543 346.326233,920.536804 
	C353.449463,918.501099 356.513489,913.287720 358.710266,907.707153 
	C361.331482,901.048584 363.645081,894.352844 363.192444,886.796570 
	C362.729126,879.062134 364.077423,871.227112 363.748077,863.473694 
	C363.537506,858.516296 361.713593,853.628845 360.630676,848.706177 
	C360.277649,847.101379 359.980408,845.484253 359.657654,843.872803 
	C359.156128,844.560059 358.654572,845.247314 358.153015,845.934631 
	C356.440613,842.932556 355.022583,839.707458 352.952820,836.976257 
	C348.987823,831.744202 343.656586,831.225952 337.238220,831.731934 
	C330.773590,832.241577 325.673706,834.236084 321.457092,838.980835 
	C318.711487,834.626526 318.837128,834.659241 322.748657,832.210815 
	C323.439423,831.778381 322.962769,829.481079 322.700745,827.921021 
	C333.062408,819.730591 349.727295,821.134766 360.207336,831.003418 
	C361.415619,832.141235 362.539490,833.368713 363.814758,835.258606 
	C363.953918,836.977417 363.980835,837.992188 363.763123,839.025635 
	C363.258057,839.193970 362.997589,839.343811 362.737122,839.493591 
	C363.158478,839.662231 363.579865,839.830872 364.019958,840.233521 
	C364.038727,840.467529 364.053467,840.936768 364.153503,841.218018 
	C364.858276,841.979675 365.463074,842.460022 366.319824,843.133728 
	C367.398560,843.877563 368.225281,844.428040 369.051971,844.978577 
	C369.372253,845.771851 369.692505,846.565186 369.775024,847.821899 
	C369.813171,848.876282 370.089081,849.467102 370.364960,850.057983 
	C370.627075,865.277893 370.889191,880.497803 370.544800,896.107910 
	C369.977142,897.029175 370.015991,897.560242 370.054901,898.091309 
	C368.029449,904.505981 366.003967,910.920654 363.685120,917.568481 
M362.582092,841.516968 
	C362.582092,841.516968 362.477448,841.578247 362.582092,841.516968 
M362.516693,836.424805 
	C362.516693,836.424805 362.576080,836.527283 362.516693,836.424805 
z"/>
<path fill="#F4F4F4" opacity="1.000000" stroke="none" 
	d="
M604.264648,854.576538 
	C603.457214,858.420227 601.899780,862.003296 602.296143,865.355347 
	C602.700867,868.778442 601.348328,869.669128 597.997803,871.074097 
	C597.997803,868.292603 598.112244,866.058105 597.977600,863.838745 
	C597.453979,855.209595 596.304810,846.697144 590.747803,839.628418 
	C589.117065,837.553955 586.963379,835.618042 584.636841,834.419128 
	C579.598633,831.823059 574.576355,828.155090 568.388184,831.018677 
	C565.516418,832.347473 562.148376,833.396667 560.131165,835.602356 
	C556.689331,839.365723 551.011658,841.458252 550.352600,847.474731 
	C549.997620,850.715515 550.057129,854.017212 549.497009,857.215637 
	C548.953491,860.319153 547.000916,863.368164 547.149475,866.367737 
	C547.819336,879.896484 548.962952,893.403503 550.077332,906.906677 
	C550.249084,908.988770 551.157471,911.010010 550.735962,913.467468 
	C547.965881,911.002930 545.195862,908.538452 542.040283,906.101685 
	C541.068909,903.279785 539.974670,900.428833 539.981567,897.580566 
	C540.019409,881.952759 540.326965,866.325623 541.097778,850.296875 
	C542.064453,848.250122 542.475281,846.604675 542.886108,844.959290 
	C542.984619,844.093201 543.083130,843.227173 543.757446,842.165283 
	C548.794312,843.868774 549.734680,839.481567 551.882446,837.539246 
	C554.832153,834.871765 557.375977,831.755554 560.093750,828.831604 
	C560.401855,829.066650 560.709961,829.301758 561.018066,829.536804 
	C561.018066,828.042297 561.018066,826.547791 561.018066,825.053284 
	C569.556946,821.448547 578.006653,821.925964 586.552063,826.135132 
	C586.935486,827.729309 586.893188,829.548889 587.416748,829.729736 
	C589.488342,830.444885 591.737183,830.646790 593.920288,831.039062 
	C593.920288,831.039001 593.989563,831.010376 593.988098,831.416077 
	C594.782410,832.426758 595.578186,833.031799 596.373901,833.636841 
	C596.373901,833.636841 596.252625,833.818481 596.115845,834.011658 
	C595.332764,834.655823 594.686462,835.106812 593.588867,835.872620 
	C595.580139,835.872620 596.880249,835.872620 598.180420,835.872620 
	C598.180420,835.872620 598.071350,835.942932 598.053955,836.280396 
	C598.024353,837.411926 598.012207,838.205994 597.796509,839.121094 
	C597.606689,839.587280 597.620422,839.932373 597.634155,840.277527 
	C597.756104,839.851685 597.878052,839.425842 598.359131,838.998047 
	C599.196533,838.977600 599.674866,838.959106 600.153198,838.940552 
	C601.111938,840.728455 602.070679,842.516296 602.750488,844.859375 
	C601.602478,847.940186 600.204834,850.591553 604.038025,851.998474 
	C604.149414,852.737183 604.260803,853.475830 604.264648,854.576538 
z"/>
<path fill="#ECECEC" opacity="1.000000" stroke="none" 
	d="
M560.674683,825.100220 
	C561.018066,826.547791 561.018066,828.042297 561.018066,829.536804 
	C560.709961,829.301758 560.401855,829.066650 560.093750,828.831604 
	C557.375977,831.755554 554.832153,834.871765 551.882446,837.539246 
	C549.734680,839.481567 548.794312,843.868774 543.965576,841.908569 
	C546.307007,833.406555 553.050903,829.008179 560.674683,825.100220 
M548.483704,838.590881 
	C548.483704,838.590881 548.417542,838.479187 548.483704,838.590881 
z"/>
<path fill="#ECECEC" opacity="1.000000" stroke="none" 
	d="
M399.136230,1018.345459 
	C397.808624,1015.665405 396.631256,1013.283081 395.382751,1010.756775 
	C398.050018,1008.187012 399.473389,1009.189697 400.292480,1012.480835 
	C401.090607,1015.687927 401.476227,1019.326294 406.245117,1019.130676 
	C405.770416,1020.066345 405.407135,1020.782410 404.998352,1021.812988 
	C403.064026,1020.966003 401.175232,1019.804504 399.136230,1018.345459 
z"/>
<path fill="#ECECEC" opacity="1.000000" stroke="none" 
	d="
M388.999634,1004.000000 
	C387.858459,1004.342041 386.717285,1004.684143 385.213135,1005.036987 
	C383.476044,1003.300781 382.101868,1001.553772 380.740906,999.454834 
	C381.390900,998.615540 382.027679,998.128113 382.059235,998.103943 
	C384.498779,999.965698 386.691254,1001.638916 388.941864,1003.656067 
	C389.000000,1004.000000 388.999634,1004.000000 388.999634,1004.000000 
z"/>
<path fill="#ECECEC" opacity="1.000000" stroke="none" 
	d="
M439.689331,994.807251 
	C438.421661,996.084167 436.843353,997.148926 435.004883,998.389160 
	C433.785461,996.472839 432.932953,995.133240 432.039246,993.448364 
	C434.458221,993.600403 436.918457,994.097717 439.689331,994.807251 
z"/>
<path fill="#ECECEC" opacity="1.000000" stroke="none" 
	d="
M419.137115,1028.777344 
	C420.446167,1027.558105 422.056915,1026.510620 423.667633,1025.463013 
	C424.111542,1026.821289 424.555450,1028.179565 424.960297,1029.873047 
	C423.093750,1029.788330 421.266296,1029.368652 419.137115,1028.777344 
z"/>
<path fill="#DBDBDB" opacity="1.000000" stroke="none" 
	d="
M364.007751,839.007019 
	C363.980835,837.992188 363.953918,836.977417 363.927124,835.581604 
	C365.655975,838.212158 367.384766,841.223755 369.082764,844.606934 
	C368.225281,844.428040 367.398560,843.877563 366.260437,842.821411 
	C365.317200,841.856079 364.685333,841.396423 364.053467,840.936768 
	C364.053467,840.936768 364.038727,840.467529 364.019348,840.233765 
	C364.000000,840.000000 363.998779,840.001648 364.180328,839.917725 
	C364.238556,839.552063 364.115234,839.270386 363.995300,838.993408 
	C363.998688,838.998108 364.007751,839.007019 364.007751,839.007019 
z"/>
<path fill="#ECECEC" opacity="1.000000" stroke="none" 
	d="
M385.810120,1006.439453 
	C387.738800,1006.363342 389.759644,1006.616882 391.997528,1006.897583 
	C391.997528,1008.584534 391.997528,1010.026917 391.989441,1011.884766 
	C389.955017,1010.456482 387.928650,1008.612732 385.810120,1006.439453 
z"/>
<path fill="#ECECEC" opacity="1.000000" stroke="none" 
	d="
M593.790100,830.732117 
	C591.737183,830.646790 589.488342,830.444885 587.416748,829.729736 
	C586.893188,829.548889 586.935486,827.729309 586.855835,826.347168 
	C589.215942,827.496094 591.437927,828.960632 593.790100,830.732117 
z"/>
<path fill="#ECECEC" opacity="1.000000" stroke="none" 
	d="
M479.589417,994.058594 
	C477.642242,997.819153 474.290863,997.328857 470.569214,995.753296 
	C473.282440,994.839783 476.229431,994.431152 479.589417,994.058594 
z"/>
<path fill="#ECECEC" opacity="1.000000" stroke="none" 
	d="
M498.675964,1019.003540 
	C499.372620,1019.873718 499.749329,1020.742493 500.209534,1022.082520 
	C500.293060,1022.553772 500.240173,1022.505798 500.066162,1022.143127 
	C499.746216,1022.165344 499.600250,1022.550293 499.454285,1022.935181 
	C498.552124,1023.367188 497.650024,1023.799194 496.430725,1024.251953 
	C495.476959,1021.926941 494.296417,1019.349792 498.675964,1019.003540 
z"/>
<path fill="#ECECEC" opacity="1.000000" stroke="none" 
	d="
M604.138916,851.597900 
	C600.204834,850.591553 601.602478,847.940186 602.729980,845.209412 
	C603.405457,847.068665 603.822632,849.132935 604.138916,851.597900 
z"/>
<path fill="#ECECEC" opacity="1.000000" stroke="none" 
	d="
M463.387970,1032.061279 
	C463.892303,1030.693359 464.785431,1029.449463 466.283081,1027.363403 
	C466.669312,1029.423462 466.835693,1030.310913 467.002045,1031.544678 
	C465.926910,1031.989258 464.851807,1032.087158 463.387970,1032.061279 
z"/>
<path fill="#ECECEC" opacity="1.000000" stroke="none" 
	d="
M542.550232,845.081421 
	C542.475281,846.604675 542.064453,848.250122 541.307556,849.940918 
	C541.379150,848.392029 541.796753,846.797791 542.550232,845.081421 
z"/>
<path fill="#DEDEDE" opacity="1.000000" stroke="none" 
	d="
M512.829712,1016.646973 
	C511.750793,1013.978516 512.078369,1012.246521 515.855530,1013.932495 
	C515.101257,1015.001404 514.107483,1015.750732 512.829712,1016.646973 
z"/>
<path fill="#ECECEC" opacity="1.000000" stroke="none" 
	d="
M465.000000,997.000000 
	C464.224731,997.331787 463.449463,997.663513 462.336487,997.997620 
	C461.992279,997.421753 461.985779,996.843445 461.976868,995.976074 
	C462.728912,995.557739 463.483337,995.428528 464.625000,995.639709 
	C465.008118,996.320007 465.004059,996.660034 465.000000,997.000000 
z"/>
<path fill="#DEDEDE" opacity="1.000000" stroke="none" 
	d="
M504.324219,1020.935791 
	C504.553345,1019.579712 504.047546,1016.612610 507.227051,1019.115479 
	C506.552765,1019.838806 505.607056,1020.418030 504.324219,1020.935791 
z"/>
<path fill="#ECECEC" opacity="1.000000" stroke="none" 
	d="
M598.123779,835.581421 
	C596.880249,835.872620 595.580139,835.872620 593.588867,835.872620 
	C594.686462,835.106812 595.332764,834.655823 596.200928,833.943115 
	C596.970825,834.217712 597.518921,834.754028 598.123779,835.581421 
z"/>
<path fill="#ECECEC" opacity="1.000000" stroke="none" 
	d="
M408.918823,1024.399414 
	C410.118378,1024.545288 411.478699,1024.997314 412.876343,1025.837646 
	C411.635620,1025.719238 410.357605,1025.212280 408.918823,1024.399414 
z"/>
<path fill="#F0F0F0" opacity="1.000000" stroke="none" 
	d="
M465.545044,996.979919 
	C465.004059,996.660034 465.008118,996.320007 465.006317,995.725098 
	C466.029724,995.336975 467.058960,995.203796 468.340729,995.168518 
	C467.758850,995.830872 466.924469,996.395325 465.545044,996.979919 
z"/>
<path fill="#ECECEC" opacity="1.000000" stroke="none" 
	d="
M438.365723,1032.124023 
	C438.966492,1031.781982 439.932922,1031.559937 440.949646,1031.670898 
	C440.243744,1032.084106 439.487549,1032.164062 438.365723,1032.124023 
z"/>
<path fill="#ECECEC" opacity="1.000000" stroke="none" 
	d="
M596.266846,833.354431 
	C595.578186,833.031799 594.782410,832.426758 593.973755,831.450684 
	C594.693848,831.743774 595.426819,832.407898 596.266846,833.354431 
z"/>
<path fill="#ECECEC" opacity="1.000000" stroke="none" 
	d="
M598.359131,838.998047 
	C598.012207,838.205994 598.024353,837.411926 598.083618,836.222717 
	C598.773376,836.649475 599.416077,837.471375 600.105957,838.616943 
	C599.674866,838.959106 599.196533,838.977600 598.359131,838.998047 
z"/>
<path fill="#DBDBDB" opacity="1.000000" stroke="none" 
	d="
M370.494568,849.803467 
	C370.089081,849.467102 369.813171,848.876282 369.743530,848.150574 
	C370.174561,848.526855 370.399353,849.037903 370.494568,849.803467 
z"/>
<path fill="#C0C0C0" opacity="1.000000" stroke="none" 
	d="
M370.217102,897.889099 
	C370.015991,897.560242 369.977142,897.029175 370.160980,896.355469 
	C370.382233,896.704163 370.380768,897.195557 370.217102,897.889099 
z"/>
<path fill="#ECECEC" opacity="1.000000" stroke="none" 
	d="
M414.280273,1027.041870 
	C414.481537,1026.480957 414.950745,1026.117920 415.419983,1025.754883 
	C415.579865,1026.152710 415.739777,1026.550415 415.863373,1027.235596 
	C415.400757,1027.428467 414.974487,1027.334106 414.280273,1027.041870 
z"/>
<path fill="#F1F1F1" opacity="1.000000" stroke="none" 
	d="
M499.601501,1022.867188 
	C499.600250,1022.550293 499.746216,1022.165344 500.045715,1022.113892 
	C500.039062,1022.551758 499.888855,1022.669006 499.601501,1022.867188 
z"/>
<path fill="#040404" opacity="1.000000" stroke="none" 
	d="
M616.000122,520.234009 
	C640.160522,520.246948 663.821167,520.206787 687.481323,520.290283 
	C704.906494,520.351746 723.988892,535.804749 717.913086,558.849915 
	C716.380432,564.663330 711.895386,570.403625 707.290405,574.529053 
	C701.070435,580.101379 693.053467,582.761353 684.318481,582.761963 
	C580.679993,582.769165 477.041504,582.881348 373.403015,582.908813 
	C321.750366,582.922485 270.097595,582.877319 218.445190,582.732849 
	C202.599899,582.688477 189.949539,573.203186 185.994919,558.928406 
	C180.726425,539.910950 194.881439,520.422058 214.604706,520.361511 
	C284.085907,520.148010 353.567963,520.190796 423.049713,520.179321 
	C487.199829,520.168762 551.349976,520.213562 616.000122,520.234009 
z"/>
<path fill="#040404" opacity="1.000000" stroke="none" 
	d="
M427.000244,376.393188 
	C509.463287,376.399261 591.426331,376.432068 673.389343,376.378998 
	C684.171936,376.372040 694.558105,377.372620 704.141418,383.074005 
	C715.134888,389.614410 720.334900,398.890869 719.138916,411.698700 
	C717.961304,424.309174 710.518372,432.174286 699.196228,436.010956 
	C693.052612,438.092804 686.189331,438.826813 679.647888,438.840485 
	C598.851562,439.009216 518.054749,438.933929 437.258087,438.918823 
	C415.101685,438.914673 392.945190,438.943268 370.788971,438.875549 
	C358.456970,438.837830 347.949951,434.631958 340.471863,424.470123 
	C331.313995,412.025665 336.272552,390.545593 349.663574,383.035828 
	C358.689545,377.973969 368.428467,376.542938 378.523041,376.503204 
	C394.515320,376.440247 410.507812,376.427277 427.000244,376.393188 
z"/>
<path fill="#F3F3F3" opacity="1.000000" stroke="none" 
	d="
M321.549194,830.467285 
	C321.582825,830.523376 321.515564,830.411255 321.549194,830.467285 
z"/>
<path fill="#ECECEC" opacity="1.000000" stroke="none" 
	d="
M481.002441,1002.002441 
	C485.489441,997.695068 491.383698,997.752502 496.963135,996.738281 
	C498.021210,996.545959 499.351837,995.638733 499.805084,994.698853 
	C502.401520,989.314880 511.503021,983.567200 517.122559,984.005066 
	C521.213806,984.323914 524.209656,990.743164 522.110657,994.241821 
	C518.635864,1000.033569 513.120300,1003.052124 507.542053,1006.359802 
	C504.615570,1008.095154 502.845276,1011.780273 500.275818,1014.791260 
	C492.743744,1017.295776 485.518829,1019.696777 478.216980,1021.835144 
	C475.729919,1022.563477 473.059509,1022.750977 470.454803,1022.973877 
	C465.683105,1023.382141 460.900391,1023.683228 456.116791,1023.915894 
	C454.828461,1023.978516 453.121033,1024.107056 452.284332,1023.401184 
	C445.379639,1017.576538 437.471375,1020.487793 429.881378,1020.515564 
	C427.123474,1020.525635 424.324921,1020.409790 421.627106,1019.908630 
	C420.678223,1019.732483 419.975006,1018.233582 419.159607,1017.338684 
	C420.262726,1016.564148 421.381409,1015.117554 422.466034,1015.142639 
	C425.550049,1015.214111 428.621765,1015.875244 431.695007,1016.326660 
	C432.992523,1016.517273 434.389099,1017.179871 435.547638,1016.880615 
	C437.006897,1016.503845 438.737488,1015.640015 439.444061,1014.448547 
	C439.885406,1013.704163 438.765198,1011.910461 438.138000,1010.694763 
	C437.635132,1009.719971 436.819550,1008.906555 435.037079,1006.575806 
	C442.983215,1006.207886 449.694824,1005.897095 456.703217,1005.292725 
	C457.444458,1004.999329 457.888885,1004.999695 458.927307,1005.277954 
	C464.231842,1006.488831 469.637512,1006.274231 470.654358,1012.963623 
	C470.768311,1013.713135 472.572693,1014.205627 473.593079,1014.817322 
	C473.870239,1013.581421 474.795288,1011.934082 474.315613,1011.178894 
	C471.870209,1007.328613 473.511536,1006.459045 477.213806,1005.789917 
	C478.657715,1005.528931 479.750000,1003.322693 481.002441,1002.002441 
z"/>
<path fill="#ECECEC" opacity="1.000000" stroke="none" 
	d="
M391.760742,986.721313 
	C395.006287,982.722656 398.376923,982.248840 402.266174,985.109680 
	C404.510223,986.760376 406.876404,988.245117 409.281342,989.867798 
	C408.522675,992.330750 407.656921,995.141296 406.565186,998.685547 
	C405.793335,999.008606 404.042511,999.741333 401.002228,1001.013794 
	C403.174622,1002.025696 404.216980,1002.496704 405.246307,1002.994812 
	C406.226044,1003.468933 407.841003,1003.777344 408.055206,1004.493835 
	C409.163727,1008.201965 410.939484,1010.658875 415.296143,1010.468506 
	C415.759735,1010.448181 416.315155,1012.528687 416.827972,1013.634644 
	C415.324554,1014.292542 413.440063,1015.869568 412.389954,1015.434204 
	C409.371826,1014.182800 406.672668,1012.146484 403.884674,1010.361511 
	C402.218506,1009.294800 400.768433,1007.625793 398.964691,1007.088257 
	C393.510284,1005.462585 392.159607,1000.056641 389.370697,996.302429 
	C388.138763,994.644104 390.677399,990.184692 391.760742,986.721313 
z"/>
<path fill="#ECECEC" opacity="1.000000" stroke="none" 
	d="
M419.000122,1001.411804 
	C424.162994,998.783691 428.371887,1001.069885 434.007050,1004.492310 
	C431.301880,1004.874939 429.940887,1005.164307 428.568390,1005.236877 
	C426.889038,1005.325684 424.997223,1004.731628 423.554474,1005.315491 
	C419.695221,1006.877441 418.737793,1005.305847 419.000122,1001.411804 
z"/>
<path fill="#ECECEC" opacity="1.000000" stroke="none" 
	d="
M418.994202,1000.620850 
	C415.772400,1001.264954 413.561127,1000.297058 413.475037,996.295471 
	C416.837036,995.714111 418.561035,997.031250 418.994202,1000.620850 
z"/>
<path fill="#ECECEC" opacity="1.000000" stroke="none" 
	d="
M491.199799,1022.517944 
	C491.148621,1023.230164 490.917358,1023.779541 490.686066,1024.328857 
	C490.463287,1024.213135 490.240479,1024.097290 490.017700,1023.981506 
	C490.351715,1023.439392 490.685699,1022.897278 491.199799,1022.517944 
z"/>
<path fill="#ECECEC" opacity="1.000000" stroke="none" 
	d="
M472.067688,1027.689575 
	C471.528992,1027.720581 471.146912,1027.594727 470.764832,1027.468872 
	C470.869171,1027.364136 470.997009,1027.154907 471.073914,1027.172119 
	C471.464661,1027.260010 471.842194,1027.406738 472.067688,1027.689575 
z"/>
<path fill="#ECECEC" opacity="1.000000" stroke="none" 
	d="
M389.000610,1004.000000 
	C389.120026,1004.138916 389.238831,1004.277893 389.357605,1004.416870 
	C389.274292,1004.368042 389.190948,1004.319275 389.053619,1004.135254 
	C388.999634,1004.000000 389.000000,1004.000000 389.000610,1004.000000 
z"/>
<path fill="#F0F0F0" opacity="1.000000" stroke="none" 
	d="
M480.588409,1002.011230 
	C479.750000,1003.322693 478.657715,1005.528931 477.213806,1005.789917 
	C473.511536,1006.459045 471.870209,1007.328613 474.315613,1011.178894 
	C474.795288,1011.934082 473.870239,1013.581421 473.593079,1014.817322 
	C472.572693,1014.205627 470.768311,1013.713135 470.654358,1012.963623 
	C469.637512,1006.274231 464.231842,1006.488831 459.260620,1005.277954 
	C460.883057,1004.339783 462.725525,1003.298828 464.656982,1003.092834 
	C469.808990,1002.543457 474.999298,1002.353149 480.588409,1002.011230 
z"/>
<path fill="#EBEBEB" opacity="1.000000" stroke="none" 
	d="
M364.153503,841.218018 
	C364.685333,841.396423 365.317200,841.856079 366.008453,842.628052 
	C365.463074,842.460022 364.858276,841.979675 364.153503,841.218018 
z"/>
<path fill="#DBDBDB" opacity="1.000000" stroke="none" 
	d="
M364.000610,839.999756 
	C363.579865,839.830872 363.158478,839.662231 362.737122,839.493591 
	C362.997589,839.343811 363.258057,839.193970 363.763123,839.025635 
	C364.007751,839.007019 363.998688,838.998108 363.986084,839.246704 
	C363.981934,839.664185 363.990356,839.832947 363.998779,840.001648 
	C363.998779,840.001648 364.000000,840.000000 364.000610,839.999756 
z"/>
<path fill="#EBEBEB" opacity="1.000000" stroke="none" 
	d="
M362.529785,841.547607 
	C362.477448,841.578247 362.582092,841.516968 362.529785,841.547607 
z"/>
<path fill="#DBDBDB" opacity="1.000000" stroke="none" 
	d="
M362.546387,836.476074 
	C362.576080,836.527283 362.516693,836.424805 362.546387,836.476074 
z"/>
<path fill="#ECECEC" opacity="1.000000" stroke="none" 
	d="
M597.796509,839.121094 
	C597.878052,839.425842 597.756104,839.851685 597.634155,840.277527 
	C597.620422,839.932373 597.606689,839.587280 597.796509,839.121094 
z"/>
<path fill="#F4F4F4" opacity="1.000000" stroke="none" 
	d="
M548.450623,838.535034 
	C548.417542,838.479187 548.483704,838.590881 548.450623,838.535034 
z"/>
<path fill="#F3F3F3" opacity="1.000000" stroke="none" 
	d="
M364.180328,839.917725 
	C363.990356,839.832947 363.981934,839.664185 363.982697,839.242065 
	C364.115234,839.270386 364.238556,839.552063 364.180328,839.917725 
z"/>
</svg>